<svg width="1907" height="153" viewBox="0 0 1907 153" fill="none" xmlns="http://www.w3.org/2000/svg">
<path d="M73.8875 56.1361H51.7199V56.074H46.7876C41.351 56.074 36.9438 51.6667 36.9438 46.2301V26.7704C36.9438 22.6878 33.6348 19.3789 29.5522 19.3789H7.39151C3.30891 19.3789 0 22.6878 0 26.7704V48.9381C0 53.0207 3.30891 56.3296 7.39151 56.3296H29.2759C33.6694 57.3174 36.9507 61.2411 36.9507 65.9316V70.8639V85.7644V90.7381C36.9507 96.223 32.5019 100.672 27.017 100.672H7.39151C3.30891 100.672 0 103.981 0 108.063V130.231C0 134.314 3.30891 137.622 7.39151 137.622H29.5591C33.6418 137.622 36.9507 134.314 36.9507 130.231V110.605C36.9507 105.12 41.3994 100.679 46.8774 100.679H51.8511V100.492H73.8944C77.977 100.492 81.2859 97.1832 81.2859 93.1006V63.5484C81.2859 59.4658 77.977 56.1569 73.8944 56.1569L73.8875 56.1361Z" fill="url(#paint0_linear_260_4)"/>
<path d="M143.284 65.9247C143.284 61.2342 146.566 57.3174 150.959 56.3227H172.844C176.926 56.3227 180.235 53.0137 180.235 48.9311V26.7704C180.235 22.6878 176.926 19.3789 172.844 19.3789H150.676C146.593 19.3789 143.284 22.6878 143.284 26.7704V46.2301C143.284 51.6667 138.877 56.074 133.441 56.074H128.508V56.1361H106.341C102.258 56.1361 98.9492 59.4451 98.9492 63.5277V93.0799C98.9492 97.1625 102.258 100.471 106.341 100.471H128.384V100.658H133.358C138.843 100.658 143.284 105.107 143.284 110.585V130.21C143.284 134.293 146.593 137.602 150.676 137.602H172.844C176.926 137.602 180.235 134.293 180.235 130.21V108.043C180.235 103.96 176.926 100.651 172.844 100.651H153.218C147.733 100.651 143.284 96.2023 143.284 90.7174V65.9109V65.9247Z" fill="url(#paint1_linear_260_4)"/>
<path d="M1784.65 125.646C1784 129.442 1782.98 132.849 1781.6 135.859L1781.6 135.863C1780.21 138.858 1778.17 141.461 1775.5 143.671L1775.5 143.672C1772.87 145.89 1769.41 147.725 1765.16 149.193L1765.16 149.192C1760.95 150.711 1755.66 151.919 1749.29 152.821L1748.65 152.912L1748.51 152.28C1748.43 151.906 1748.26 151.437 1747.97 150.868H1747.97C1747.68 150.34 1747.37 149.811 1747.03 149.282L1747.02 149.262L1747.01 149.241C1746.72 148.714 1746.44 148.269 1746.16 147.902L1745.43 146.93L1746.64 146.787C1752.56 146.091 1757.41 145.148 1761.2 143.967C1765.05 142.734 1768.03 141.244 1770.19 139.518L1770.2 139.513C1772.42 137.772 1774.07 135.779 1775.17 133.537L1775.17 133.531C1776.33 131.205 1777.19 128.499 1777.73 125.406L1777.83 124.827H1784.8L1784.65 125.646ZM1873.24 98.1514H1903.06V105.246H1877.11C1878.69 108.339 1880.52 111.367 1882.62 114.329C1885.74 118.683 1889.23 122.616 1893.08 126.127C1896.98 129.586 1901.06 132.347 1905.29 134.415L1906.23 134.873L1905.45 135.567C1905.01 135.953 1904.53 136.412 1903.99 136.949C1903.51 137.48 1903.02 138.061 1902.54 138.692L1902.53 138.703L1902.52 138.714C1902.04 139.295 1901.63 139.845 1901.3 140.365L1900.95 140.925L1900.37 140.6C1895.97 138.121 1891.75 134.962 1887.71 131.13L1887.71 131.124C1883.72 127.242 1880.12 122.882 1876.9 118.048C1875.59 116.092 1874.37 114.101 1873.24 112.078V131.571H1887.55V138.666H1873.24V152.679H1865.92V138.666H1851.23V131.571H1865.92V112.038C1864.77 114.052 1863.55 116.032 1862.25 117.974L1862.25 117.977C1858.98 122.809 1855.35 127.191 1851.37 131.121L1851.37 131.124C1847.39 135.006 1843.22 138.215 1838.87 140.744L1838.3 141.075L1837.93 140.527C1837.66 140.115 1837.28 139.644 1836.8 139.111L1836.79 139.101L1836.78 139.089C1836.29 138.497 1835.79 137.929 1835.3 137.388L1835.29 137.374L1835.28 137.36C1834.85 136.835 1834.42 136.388 1834 136.017L1833.25 135.344L1834.14 134.873C1837.24 133.249 1840.25 131.229 1843.16 128.811L1843.17 128.807C1846.13 126.385 1848.93 123.666 1851.55 120.647V120.646C1854.22 117.577 1856.62 114.335 1858.75 110.92C1859.92 109.05 1860.99 107.159 1861.96 105.246H1836.32V98.1514H1865.92V82.415H1873.24V98.1514ZM1784.91 135.571C1787.27 136.274 1789.76 137.076 1792.36 137.979C1794.96 138.879 1797.56 139.83 1800.17 140.83C1802.78 141.784 1805.21 142.764 1807.48 143.771C1809.78 144.721 1811.74 145.6 1813.35 146.407L1814.08 146.772L1813.61 147.438L1810.31 152.084L1809.97 152.573L1809.43 152.305C1807.84 151.512 1805.93 150.617 1803.69 149.621L1803.68 149.618C1801.5 148.625 1799.14 147.631 1796.6 146.636L1796.59 146.631C1794.05 145.586 1791.46 144.591 1788.82 143.646L1788.82 143.643L1788.81 143.64C1786.22 142.645 1783.76 141.775 1781.43 141.03L1780.49 140.732L1781.08 139.945L1784.15 135.824L1784.45 135.432L1784.91 135.571ZM1803.97 148.981C1804.1 149.04 1804.23 149.098 1804.36 149.155C1804.23 149.098 1804.1 149.039 1803.97 148.98C1803.42 148.731 1802.86 148.481 1802.29 148.231C1802.86 148.481 1803.42 148.732 1803.97 148.981ZM1682.88 148.01H1681.45V6.00977H1682.88V148.01ZM1839.29 139.683C1839.03 139.837 1838.77 139.989 1838.52 140.139C1838.44 140.027 1838.36 139.911 1838.27 139.793L1838.52 140.14C1838.77 139.99 1839.03 139.838 1839.29 139.683ZM1779.34 82.6465L1784.74 83.3955L1785.61 83.5176L1785.29 84.3408C1784.66 85.9925 1783.91 87.6483 1783.05 89.3086H1807.31L1808.1 89.0449L1808.3 88.9785L1808.5 89.0342L1812.62 90.1582L1813.42 90.376L1813.07 91.1279C1812.12 93.1847 1811.09 95.2909 1809.99 97.4463C1808.93 99.5582 1807.92 101.355 1806.96 102.831L1806.67 103.265L1806.17 103.12L1801.3 101.696L1800.42 101.438L1800.9 100.657C1801.69 99.3865 1802.52 97.8117 1803.41 95.9287L1803.42 95.9219L1803.42 95.915C1803.57 95.6265 1803.71 95.3395 1803.84 95.0547H1794.3C1793.99 96.1042 1793.63 97.134 1793.23 98.1445C1794.43 99.935 1795.91 101.616 1797.68 103.187C1799.88 105.044 1802.38 106.662 1805.18 108.037L1805.71 108.29C1808.4 109.538 1811.24 110.485 1814.24 111.13L1815.57 111.417L1814.56 112.332C1814.18 112.673 1813.77 113.129 1813.32 113.705L1812.85 114.338C1812.21 115.17 1811.7 115.918 1811.32 116.583L1811.05 117.059L1810.53 116.909C1807.13 115.945 1803.9 114.599 1800.85 112.873L1800.84 112.866C1797.85 111.09 1795.18 109.031 1792.84 106.689L1792.83 106.684C1791.95 105.783 1791.13 104.849 1790.37 103.882C1789.62 105.05 1788.79 106.172 1787.87 107.249C1786.01 109.413 1783.66 111.357 1780.81 113.087L1780.8 113.089C1778.01 114.765 1774.63 116.202 1770.67 117.409H1805.87V139.19H1798.63V124.054H1762.86V139.715H1755.91V117.409H1769.94L1769.78 117.073C1769.5 116.525 1769.08 115.862 1768.49 115.082L1768.48 115.062L1768.47 115.042C1767.94 114.23 1767.44 113.644 1766.96 113.255L1765.91 112.396L1767.22 112.038C1770.83 111.05 1773.84 109.87 1776.28 108.506C1778.72 107.087 1780.71 105.532 1782.25 103.849C1783.8 102.103 1785.01 100.243 1785.87 98.2695L1785.88 98.2637L1785.88 98.2568C1786.37 97.2027 1786.79 96.1349 1787.16 95.0547H1779.62C1777.51 98.119 1774.88 100.939 1771.75 103.514L1771.15 104.004L1770.72 103.36C1770.47 102.981 1770.12 102.608 1769.67 102.245L1769.63 102.221L1769.61 102.193C1769.41 101.994 1769.2 101.8 1768.99 101.61L1769.07 102.022L1769.97 106.969L1770.08 107.568L1769.5 107.759C1765.85 108.958 1762.18 110.157 1758.48 111.356C1754.84 112.554 1751.52 113.676 1748.53 114.723L1747.85 114.961L1747.63 114.275L1745.98 109.104L1745.76 108.421L1746.45 108.22C1749.19 107.422 1752.49 106.425 1756.33 105.227C1760.18 104.028 1764.12 102.78 1768.17 101.481L1768.66 101.321C1768.52 101.203 1768.38 101.085 1768.24 100.971C1767.76 100.583 1767.33 100.275 1766.96 100.044L1766.1 99.5049L1766.91 98.8916C1769.9 96.6362 1772.34 94.0937 1774.24 91.2666L1774.24 91.2646C1776.22 88.352 1777.66 85.6305 1778.59 83.0996L1778.78 82.5684L1779.34 82.6465ZM790.71 22.5449L744.488 79.8516L790.825 137.492L770.825 137.49L734.413 92.3438L698.001 137.49L678.001 137.492L724.337 79.8516L678.116 22.5449L697.616 21.5449L734.413 67.3184L771.21 21.5449L790.71 22.5449ZM603.936 74.2607L664.709 137.455L641.71 137.454L592.672 84.3008L586.038 90.2168L575.479 99.9658V137.08H558.586V22.6064H575.479V79.3965H575.561L639.5 22.0566L662.5 22.0547L603.936 74.2607ZM922.398 18.541C929.484 18.541 936.144 19.3846 942.375 21.0762H942.376C948.651 22.7677 954.317 25.2516 959.368 28.5293L960.307 29.1455C964.949 32.2699 968.869 36.0275 972.062 40.417L972.688 41.2979C975.764 45.7394 977.904 50.7604 979.111 56.3525L979.269 57.0791H961.164L961.051 56.625C960.072 52.7204 958.363 49.2984 955.926 46.3525L955.922 46.3486C953.518 43.3901 950.578 40.9024 947.096 38.8877L947.089 38.8838C943.648 36.8302 939.821 35.2861 935.606 34.2559C931.387 33.2246 926.985 32.708 922.398 32.708C914.038 32.7081 906.482 34.4404 899.718 37.8955C893.011 41.3443 887.667 46.4243 883.682 53.1484C879.752 59.8549 877.771 68.1105 877.771 77.9424C877.771 87.7744 879.753 96.0298 883.683 102.736H883.682C887.667 109.46 893.011 114.539 899.717 117.988C906.481 121.444 914.038 123.177 922.398 123.177C926.985 123.177 931.387 122.66 935.606 121.629C939.823 120.598 943.651 119.072 947.093 117.055C950.576 115.002 953.518 112.497 955.922 109.537L955.923 109.535C958.363 106.55 960.073 103.127 961.051 99.2598L961.165 98.8066H979.27L979.111 99.5342C977.823 105.462 975.474 110.775 972.062 115.466C968.657 120.148 964.425 124.13 959.371 127.41L959.368 127.412C954.317 130.653 948.651 133.116 942.376 134.808L942.377 134.809C936.145 136.501 929.485 137.345 922.398 137.345C910.42 137.345 899.742 134.943 890.383 130.124C881.022 125.304 873.65 118.445 868.279 109.555C862.901 100.652 860.224 90.1056 860.224 77.9424C860.224 65.7793 862.901 55.234 868.279 46.3311C873.65 37.4405 881.022 30.5815 890.383 25.7617C899.742 20.9425 910.42 18.5411 922.398 18.541ZM272.408 122.01H337.001V124.783H337.253V137.08H255.516V22.6064H272.408V122.01ZM380.303 137.08H363.41V22.6064H380.303V137.08ZM506.796 112.71H508.158V22.6064H524.777V137.08H508.431L432.415 47.2002H431.053V137.08H414.16V22.6064H430.508L506.796 112.71ZM1181.59 20.709C1184.25 20.709 1186.8 20.8093 1189.22 21.0098H1192C1203.38 21.0098 1213.52 26.29 1220.12 34.5322C1221.22 35.8092 1222.21 37.1634 1223.07 38.5957C1226.36 44.0734 1228 50.185 1228 56.9297C1228 56.946 1228 56.9622 1228 56.9785C1228 56.9889 1228 56.9993 1228 57.0098C1228 57.0521 1228 57.0944 1228 57.1367C1228 57.3417 1228 57.5461 1227.99 57.75C1227.99 57.8585 1227.99 57.9669 1227.98 58.0752C1227.81 64.3699 1226.17 70.1183 1223.07 75.3193C1222.32 76.5861 1221.48 77.7926 1220.55 78.9414C1213.97 87.4953 1203.63 93.0098 1192 93.0098H1190.13C1187.51 93.2513 1184.76 93.373 1181.86 93.373H1151.83L1151.98 135.184H1135.44V20.709H1181.59ZM1113.72 135.183H1096.01L1082.09 103.01H1025.46L1011.55 135.183H993.837L1045.06 20.708H1062.5L1113.72 135.183ZM1274.1 135.183H1257.21V20.708H1274.1V135.183ZM1404.95 21.0098H1405V36.0098H1361.09V135.183H1344.19V36.0098H1300V21.0098H1300.33V20.708H1404.95V21.0098ZM1522.62 135.183H1504.91L1491 103.01H1434.37L1420.45 135.183H1402.74L1453.96 20.708H1471.4L1522.62 135.183ZM1561.24 120.01H1626V122.886H1626.09V135.183H1544.35V20.708H1561.24V120.01ZM1872.54 132.271L1872.54 109.329C1872.54 109.328 1872.54 109.327 1872.54 109.326V132.271ZM1850.88 130.622C1850.39 131.097 1849.9 131.561 1849.41 132.016C1849.65 131.791 1849.9 131.565 1850.14 131.336L1850.88 130.623V130.622ZM1887.46 129.896C1887.7 130.141 1887.95 130.383 1888.2 130.623C1888.44 130.855 1888.69 131.084 1888.93 131.311C1888.69 131.084 1888.44 130.854 1888.2 130.622C1887.95 130.382 1887.7 130.14 1887.46 129.896ZM1843.61 129.349L1844.17 128.886C1844.32 128.757 1844.48 128.627 1844.63 128.497C1844.29 128.784 1843.95 129.069 1843.61 129.349ZM1853.06 128.383V128.384C1853.3 128.13 1853.54 127.874 1853.77 127.616V127.615C1853.54 127.873 1853.3 128.129 1853.06 128.383ZM1849.63 123.781C1849.02 124.419 1848.4 125.041 1847.77 125.649C1848.4 125.041 1849.02 124.419 1849.63 123.781ZM923.266 123.771C922.977 123.775 922.688 123.776 922.398 123.776L922.399 123.777C922.689 123.777 922.978 123.776 923.266 123.771ZM1762.16 123.354H1799.33V123.354H1762.16V123.354ZM949.797 116.029C949.027 116.569 948.226 117.083 947.396 117.572C947.178 117.7 946.959 117.828 946.737 117.952C946.959 117.828 947.179 117.701 947.397 117.573C948.227 117.084 949.027 116.569 949.797 116.029ZM898.81 118.19C898.872 118.224 898.935 118.256 898.998 118.289C898.725 118.144 898.453 117.998 898.184 117.848L898.81 118.19ZM1812.77 113.275C1812.61 113.475 1812.45 113.687 1812.29 113.912C1812.18 114.056 1812.08 114.199 1811.97 114.338L1812.29 113.912C1812.45 113.687 1812.61 113.475 1812.77 113.275ZM960.743 102.285C960.657 102.518 960.568 102.749 960.477 102.979V102.979C960.66 102.521 960.832 102.055 960.992 101.582V101.581C960.912 101.818 960.829 102.052 960.743 102.285ZM1806.73 101.889H1806.73H1806.73ZM1752.42 85.0732C1754.23 85.6798 1756.15 86.4371 1758.16 87.3418L1758.91 87.665C1760.65 88.4255 1762.32 89.2255 1763.91 90.0645C1765.73 91.0259 1767.24 91.9718 1768.44 92.9043L1768.96 93.3105L1768.58 93.8535L1765.58 98.1992L1765.16 98.8076L1764.58 98.3555C1763.52 97.5355 1762.1 96.6307 1760.32 95.6416L1760.31 95.6357L1760.3 95.6299C1758.58 94.596 1756.73 93.6338 1754.75 92.7451L1754.74 92.7412L1754.73 92.7363C1752.8 91.7958 1750.92 90.9801 1749.1 90.2891L1748.24 89.9639L1748.78 89.2217L1751.63 85.3242L1751.93 84.9121L1752.42 85.0732ZM1793.78 94.3555H1804.94C1804.81 94.6478 1804.67 94.942 1804.53 95.2383C1804.67 94.9418 1804.81 94.6472 1804.95 94.3545H1793.78L1793.78 94.3555ZM1779.24 94.3555H1788.12V94.3545H1779.24V94.3555ZM1754.31 91.7568C1754.55 91.8716 1754.8 91.9887 1755.04 92.1074C1755.54 92.3322 1756.03 92.5618 1756.52 92.7959V92.7949C1756.03 92.5608 1755.54 92.3312 1755.04 92.1064C1754.8 91.9878 1754.55 91.8714 1754.31 91.7568ZM1757.89 87.9854C1758.09 88.0702 1758.29 88.1564 1758.48 88.2422L1757.89 87.9854C1757.64 87.873 1757.39 87.763 1757.14 87.6553L1757.89 87.9854ZM1440.86 88.0098H1484.51L1463.23 38.8184H1462.14L1440.86 88.0098ZM1031.95 88.0098H1075.6L1054.32 38.8184H1053.23L1031.95 88.0098ZM1784.64 84.0889C1784.61 84.1729 1784.57 84.2567 1784.54 84.3408C1784.57 84.2566 1784.61 84.173 1784.64 84.0889L1779.24 83.3398L1784.64 84.0889ZM1152 78.0098H1189C1200.6 78.0098 1210 68.6077 1210 57.0098C1210 45.4118 1200.6 36.0098 1189 36.0098H1152V78.0098ZM1851.5 55.1846C1851.62 55.2755 1851.74 55.3702 1851.85 55.4697L1852.31 55.8438C1853.28 56.6116 1854.54 57.4968 1856.08 58.501L1856.88 59.0137L1856.88 59.0146C1859.28 60.552 1862.08 61.5448 1865.29 61.9824H1865.29C1868.59 62.4268 1872.43 62.6504 1876.81 62.6504C1879.1 62.6504 1881.48 62.6259 1883.97 62.5762L1885.88 62.4971C1887.77 62.4129 1889.66 62.3143 1891.53 62.2021H1891.53C1894.07 62.0527 1896.49 61.9024 1898.78 61.7529C1901.07 61.5534 1903.16 61.3545 1905.06 61.1553L1906.33 61.0215L1905.76 62.165C1905.53 62.6189 1905.29 63.2296 1905.05 64.0088L1905.05 64.0215C1904.8 64.7575 1904.58 65.4933 1904.38 66.2285C1904.19 66.9988 1904.08 67.6558 1904.03 68.2041L1903.98 68.7998L1903.38 68.8447C1902.03 68.9453 1900.25 69.0455 1898.04 69.1455C1895.84 69.2457 1893.43 69.321 1890.83 69.3711L1890.83 69.3701C1888.28 69.4699 1885.74 69.5458 1883.19 69.5957C1880.69 69.6457 1878.49 69.6709 1876.58 69.6709C1871.66 69.6709 1867.5 69.3699 1864.09 68.7607V68.7598C1860.67 68.1956 1857.53 67.0422 1854.71 65.2949L1854.7 65.2871L1854.68 65.2793C1853.12 64.2206 1851.68 63.1594 1850.37 62.0967L1850.35 62.0879C1849.12 61.0525 1848.27 60.6787 1847.73 60.6787C1847.26 60.6788 1846.56 60.9917 1845.59 61.9102L1845.58 61.916L1845.58 61.9229C1844.63 62.7804 1843.61 63.9397 1842.53 65.4131C1841.44 66.9517 1840.32 68.5903 1839.18 70.3291L1838.63 71.1523L1838.04 70.3711L1833.84 64.9004L1833.5 64.4531L1833.86 64.0225C1836.33 61.1001 1838.73 58.6936 1841.07 56.8105C1842.3 55.8194 1843.49 55.0582 1844.63 54.5498V32.2041H1834.82V25.5586H1851.5V55.1846ZM1806.25 31.2295H1765.2L1766.17 31.5049L1766.96 31.7295L1766.61 32.4756C1765.81 34.192 1764.89 35.8821 1763.87 37.5479H1776.9V31.4785H1784.14V37.5479H1809.17V43.7441H1784.14V49.4619H1806.02V55.4336H1784.14V62.2012H1813.89V68.5469H1747.15V62.2012H1776.9V55.4336H1755.91V49.4619H1776.9V43.7441H1759.52C1758.79 44.6646 1758.05 45.56 1757.29 46.4277C1755.53 48.4945 1753.73 50.3386 1751.91 51.959L1751.42 52.3975L1750.95 51.9316C1750.63 51.6141 1750.18 51.2355 1749.6 50.7969L1749.58 50.7793C1749.04 50.3445 1748.49 49.933 1747.91 49.5459L1747.89 49.5352L1747.88 49.5234C1747.29 49.0854 1746.8 48.7554 1746.38 48.5264L1745.46 48.0137L1746.29 47.3633C1748.99 45.2521 1751.55 42.6928 1753.97 39.6826C1756.16 36.9612 1757.95 34.1432 1759.37 31.2295H1754.94V3.22852H1806.25V31.2295ZM1777.59 62.9014H1777.6V54.7334H1777.59V62.9014ZM1864.58 62.585C1864.72 62.6085 1864.87 62.6292 1865.02 62.6504C1864.67 62.5999 1864.32 62.5443 1863.97 62.4805L1864.58 62.585ZM1871.59 0.180664L1877.44 1.75391L1878.17 1.9502L1877.92 2.66016C1877.3 4.41635 1876.66 6.17934 1875.97 7.94922H1902.01V14.2949H1873.4C1872.24 17.0167 1871.01 19.6349 1869.71 22.1494L1869.71 22.1504C1869.01 23.5505 1868.31 24.8862 1867.61 26.1582H1878.05V16.9414H1885.22V26.1582H1899.85L1899.84 26.8682L1899.76 32.1133L1899.75 32.8037H1885.22V41.6689H1903.36V48.3145H1885.22V62.1025H1878.05V48.3145H1855.12V41.6689H1878.05V32.8037H1867.21C1865.44 32.8037 1863.96 32.9026 1862.75 33.0947L1862.75 33.0938C1862.18 33.1896 1861.73 33.3005 1861.4 33.4189C1861.05 33.5417 1860.88 33.6547 1860.82 33.7227L1859.62 34.917V33.2812C1859.58 32.9654 1859.45 32.5123 1859.22 31.9053L1859.21 31.876L1859.2 31.8467C1859 31.1622 1858.78 30.4764 1858.54 29.791C1858.29 29.0973 1858.07 28.5065 1857.87 28.0176L1857.57 27.2588L1858.37 27.0752C1858.78 26.9789 1859.3 26.6298 1859.9 25.8467C1860.53 24.9769 1861.22 23.8793 1861.96 22.5469L1861.96 22.5332L1861.97 22.5195C1862.35 21.9067 1862.89 20.8634 1863.58 19.3682C1864.26 17.9163 1865.01 16.2251 1865.83 14.2949H1855.72V7.94922H1868.4C1868.43 7.852 1868.47 7.75491 1868.51 7.65723C1869.35 5.32754 1870.09 2.99834 1870.74 0.669922L1870.92 0L1871.59 0.180664ZM1855.7 59.0879C1855.96 59.2568 1856.23 59.4295 1856.5 59.6045C1856.66 59.7042 1856.81 59.8012 1856.97 59.8965C1856.81 59.8011 1856.66 59.7033 1856.5 59.6035C1856.23 59.4286 1855.96 59.2566 1855.7 59.0879ZM1841.51 57.3555C1841.23 57.5865 1840.94 57.8258 1840.65 58.0732C1840.5 58.197 1840.36 58.3224 1840.21 58.4502C1839.92 58.7058 1839.63 58.9702 1839.34 59.2422L1839.78 58.8408C1840.36 58.3131 1840.94 57.8186 1841.51 57.3564L1841.51 57.3555ZM978.274 55.3828C978.362 55.7455 978.446 56.1107 978.525 56.4785C978.366 55.7428 978.192 55.0171 978 54.3018L978.274 55.3828ZM884.745 50.3662C884.608 50.5662 884.473 50.7684 884.339 50.9717C884.473 50.7683 884.609 50.5664 884.746 50.3662H884.745ZM1777.59 50.1621H1777.6V43.0439H1777.59V50.1621ZM1748.3 48.9639C1748.45 49.0638 1748.59 49.1655 1748.74 49.2686C1748.59 49.1656 1748.45 49.0637 1748.3 48.9639C1748.15 48.8514 1748 48.7455 1747.86 48.6455C1748 48.7455 1748.15 48.8515 1748.3 48.9639ZM947.396 38.3691C947.618 38.4974 947.838 38.6269 948.056 38.7588C947.838 38.6269 947.619 38.4973 947.397 38.3691C947.375 38.3558 947.352 38.3433 947.33 38.3301C947.352 38.3432 947.374 38.356 947.396 38.3691ZM1777.59 38.248H1777.6V32.1787H1777.59V38.248ZM896.008 23.8633C895.398 24.1055 894.793 24.3573 894.193 24.6182C893.594 24.879 892.999 25.1492 892.41 25.4287C891.821 25.7082 891.236 25.9968 890.657 26.2949L890.658 26.2959C892.395 25.4015 894.178 24.5902 896.008 23.8633ZM1761.81 25.334H1799.08V19.9902H1761.81V25.334ZM1868.21 23.5557C1868.28 23.4215 1868.35 23.2878 1868.42 23.1523L1868.53 22.9473C1868.42 23.1518 1868.31 23.354 1868.21 23.5557ZM1869.09 21.8379L1869.6 20.8457C1869.61 20.8105 1869.63 20.7745 1869.65 20.7393C1869.46 21.1075 1869.28 21.474 1869.09 21.8379ZM903.572 21.4043C903.247 21.4881 902.923 21.5746 902.6 21.6631L903.572 21.4053C903.898 21.3214 904.225 21.2394 904.553 21.1602L903.572 21.4043ZM1843.22 1.19531C1844.52 2.55342 1845.86 4.03565 1847.21 5.64062C1848.61 7.24501 1849.92 8.85114 1851.12 10.458L1851.59 11.0371C1852.63 12.3714 1853.47 13.5817 1854.11 14.666L1854.44 15.2314L1853.9 15.5986L1849.25 18.7451L1848.61 19.1787L1848.24 18.499C1847.61 17.3408 1846.71 15.9719 1845.52 14.3896L1845.52 14.3838L1845.52 14.3779C1844.38 12.7922 1843.14 11.18 1841.8 9.54199L1841.79 9.53418C1840.45 7.84809 1839.14 6.3135 1837.85 4.92969L1837.28 4.31445L1837.99 3.86328L1842.34 1.09082L1842.82 0.782227L1843.22 1.19531ZM1761.81 14.3184H1799.08V9.125H1761.81V14.3184Z" fill="black"/>
<defs>
<linearGradient id="paint0_linear_260_4" x1="19.583" y1="23.0278" x2="86.0522" y2="96.5938" gradientUnits="userSpaceOnUse">
<stop stop-color="#63409C"/>
<stop offset="1" stop-color="#6F4AA8"/>
</linearGradient>
<linearGradient id="paint1_linear_260_4" x1="118.532" y1="23.0271" x2="184.989" y2="96.5918" gradientUnits="userSpaceOnUse">
<stop stop-color="#63409C"/>
<stop offset="1" stop-color="#6F4AA8"/>
</linearGradient>
</defs>
</svg>
