<svg xmlns="http://www.w3.org/2000/svg" width="1600" height="1000" viewBox="0 0 1600 1000" role="img" aria-labelledby="title desc">
  <title id="title">AI entertainment layered-slice cover</title>
  <desc id="desc">Layered translucent planes and purple signal beams inspired by technical drawing and abstract media systems.</desc>
  <defs>
    <linearGradient id="paper" x1="0" y1="0" x2="1" y2="1">
      <stop offset="0" stop-color="#FCF8EE"/>
      <stop offset="0.55" stop-color="#EEE3D5"/>
      <stop offset="1" stop-color="#D8C8BA"/>
    </linearGradient>
    <radialGradient id="glow" cx="67%" cy="48%" r="54%">
      <stop offset="0" stop-color="#660874" stop-opacity="0.36"/>
      <stop offset="0.52" stop-color="#B07CC0" stop-opacity="0.14"/>
      <stop offset="1" stop-color="#660874" stop-opacity="0"/>
    </radialGradient>
    <pattern id="fineGrid" width="24" height="24" patternUnits="userSpaceOnUse">
      <path d="M24 0H0V24" fill="none" stroke="#1C1917" stroke-opacity="0.045"/>
    </pattern>
    <filter id="violetBlur"><feGaussianBlur stdDeviation="16"/></filter>
    <filter id="grain">
      <feTurbulence type="fractalNoise" baseFrequency="0.78" numOctaves="3" seed="41"/>
      <feColorMatrix type="saturate" values="0"/>
      <feComponentTransfer><feFuncA type="table" tableValues="0 0.05"/></feComponentTransfer>
    </filter>
  </defs>
  <rect width="1600" height="1000" fill="url(#paper)"/>
  <rect width="1600" height="1000" fill="url(#fineGrid)"/>
  <rect width="1600" height="1000" fill="url(#glow)"/>
  <g transform="translate(280 238)" fill="none" stroke-linejoin="round">
    <g opacity="0.7">
      <path d="M0 118L214 44V462L0 540Z" fill="#FAF8F4" fill-opacity="0.48" stroke="#1C1917" stroke-opacity="0.22"/>
      <path d="M170 88L384 16V434L170 512Z" fill="#FAF8F4" fill-opacity="0.36" stroke="#1C1917" stroke-opacity="0.2"/>
      <path d="M340 58L554 -14V404L340 482Z" fill="#FAF8F4" fill-opacity="0.28" stroke="#660874" stroke-opacity="0.24"/>
      <path d="M510 28L724 -44V374L510 452Z" fill="#FAF8F4" fill-opacity="0.2" stroke="#660874" stroke-opacity="0.32"/>
    </g>
    <g stroke="#1C1917" stroke-opacity="0.12">
      <path d="M24 132L190 74M24 184L190 126M24 236L190 178M24 288L190 230M24 340L190 282M24 392L190 334"/>
      <path d="M194 102L360 46M194 154L360 98M194 206L360 150M194 258L360 202M194 310L360 254M194 362L360 306"/>
      <path d="M364 72L530 16M364 124L530 68M364 176L530 120M364 228L530 172M364 280L530 224M364 332L530 276"/>
    </g>
  </g>
  <g fill="none" stroke-linecap="round">
    <path d="M166 748L1438 336" stroke="#660874" stroke-opacity="0.78" stroke-width="3"/>
    <path d="M160 638L1432 262" stroke="#B07CC0" stroke-opacity="0.46" stroke-width="2"/>
    <path d="M160 818L1436 470" stroke="#660874" stroke-opacity="0.32" stroke-width="1.4"/>
  </g>
  <g filter="url(#violetBlur)" opacity="0.66">
    <ellipse cx="535" cy="584" rx="76" ry="22" fill="#660874"/>
    <ellipse cx="783" cy="502" rx="82" ry="24" fill="#8B3A9A"/>
    <ellipse cx="1032" cy="422" rx="74" ry="20" fill="#660874"/>
  </g>
  <g fill="#FAF8F4" stroke="#660874" stroke-width="2">
    <circle cx="535" cy="584" r="8"/>
    <circle cx="783" cy="502" r="8"/>
    <circle cx="1032" cy="422" r="8"/>
  </g>
  <rect x="48" y="48" width="1504" height="904" fill="none" stroke="#1C1917" stroke-opacity="0.16"/>
  <rect width="1600" height="1000" filter="url(#grain)" opacity="0.88"/>
</svg>
