<svg width="180" height="119" viewBox="0 19 180.235 119" fill="none" xmlns="http://www.w3.org/2000/svg">
  <path d="M73.8875 56.1361H51.7199V56.074H46.7876C41.351 56.074 36.9438 51.6667 36.9438 46.2301V26.7704C36.9438 22.6878 33.6348 19.3789 29.5522 19.3789H7.39151C3.30891 19.3789 0 22.6878 0 26.7704V48.9381C0 53.0207 3.30891 56.3296 7.39151 56.3296H29.2759C33.6694 57.3174 36.9507 61.2411 36.9507 65.9316V70.8639V85.7644V90.7381C36.9507 96.223 32.5019 100.672 27.017 100.672H7.39151C3.30891 100.672 0 103.981 0 108.063V130.231C0 134.314 3.30891 137.622 7.39151 137.622H29.5591C33.6418 137.622 36.9507 134.314 36.9507 130.231V110.605C36.9507 105.12 41.3994 100.679 46.8774 100.679H51.8511V100.492H73.8944C77.977 100.492 81.2859 97.1832 81.2859 93.1006V63.5484C81.2859 59.4658 77.977 56.1569 73.8944 56.1569L73.8875 56.1361Z" fill="#FFFFFF"/>
  <path d="M143.284 65.9247C143.284 61.2342 146.566 57.3174 150.959 56.3227H172.844C176.926 56.3227 180.235 53.0137 180.235 48.9311V26.7704C180.235 22.6878 176.926 19.3789 172.844 19.3789H150.676C146.593 19.3789 143.284 22.6878 143.284 26.7704V46.2301C143.284 51.6667 138.877 56.074 133.441 56.074H128.508V56.1361H106.341C102.258 56.1361 98.9492 59.4451 98.9492 63.5277V93.0799C98.9492 97.1625 102.258 100.471 106.341 100.471H128.384V100.658H133.358C138.843 100.658 143.284 105.107 143.284 110.585V130.21C143.284 134.293 146.593 137.602 150.676 137.602H172.844C176.926 137.602 180.235 134.293 180.235 130.21V108.043C180.235 103.96 176.926 100.651 172.844 100.651H153.218C147.733 100.651 143.284 96.2023 143.284 90.7174V65.9109V65.9247Z" fill="#FFFFFF"/>
</svg>
